<svg xmlns="http://www.w3.org/2000/svg" xmlns:xlink="http://www.w3.org/1999/xlink" version="1.1" class="marks" width="664" height="489" viewBox="0 0 664 489"><rect width="664" height="489" fill="white"/><g fill="none" stroke-miterlimit="10" transform="translate(39,32)"><g class="mark-group role-frame root" role="graphics-object" aria-roledescription="group mark container"><g transform="translate(0,0)"><path class="background" aria-hidden="true" d="M0.5,0.5h520v420h-520Z" stroke="#ddd"/><g><g class="mark-group role-axis" aria-hidden="true"><g transform="translate(0.5,420.5)"><path class="background" aria-hidden="true" d="M0,0h0v0h0Z" pointer-events="none"/><g><g class="mark-rule role-axis-grid" pointer-events="none"><line transform="translate(0,-420)" x2="0" y2="420" stroke="#ddd" stroke-width="1" opacity="1"/><line transform="translate(40,-420)" x2="0" y2="420" stroke="#ddd" stroke-width="1" opacity="1"/><line transform="translate(80,-420)" x2="0" y2="420" stroke="#ddd" stroke-width="1" opacity="1"/><line transform="translate(120,-420)" x2="0" y2="420" stroke="#ddd" stroke-width="1" opacity="1"/><line transform="translate(160,-420)" x2="0" y2="420" stroke="#ddd" stroke-width="1" opacity="1"/><line transform="translate(200,-420)" x2="0" y2="420" stroke="#ddd" stroke-width="1" opacity="1"/><line transform="translate(240,-420)" x2="0" y2="420" stroke="#ddd" stroke-width="1" opacity="1"/><line transform="translate(280,-420)" x2="0" y2="420" stroke="#ddd" stroke-width="1" opacity="1"/><line transform="translate(320,-420)" x2="0" y2="420" stroke="#ddd" stroke-width="1" opacity="1"/><line transform="translate(360,-420)" x2="0" y2="420" stroke="#ddd" stroke-width="1" opacity="1"/><line transform="translate(400,-420)" x2="0" y2="420" stroke="#ddd" stroke-width="1" opacity="1"/><line transform="translate(440,-420)" x2="0" y2="420" stroke="#ddd" stroke-width="1" opacity="1"/><line transform="translate(480,-420)" x2="0" y2="420" stroke="#ddd" stroke-width="1" opacity="1"/><line transform="translate(520,-420)" x2="0" y2="420" stroke="#ddd" stroke-width="1" opacity="1"/></g></g><path class="foreground" aria-hidden="true" d="" pointer-events="none" display="none"/></g></g><g class="mark-group role-axis" aria-hidden="true"><g transform="translate(0.5,0.5)"><path class="background" aria-hidden="true" d="M0,0h0v0h0Z" pointer-events="none"/><g><g class="mark-rule role-axis-grid" pointer-events="none"><line transform="translate(0,420)" x2="520" y2="0" stroke="#ddd" stroke-width="1" opacity="1"/><line transform="translate(0,373)" x2="520" y2="0" stroke="#ddd" stroke-width="1" opacity="1"/><line transform="translate(0,327)" x2="520" y2="0" stroke="#ddd" stroke-width="1" opacity="1"/><line transform="translate(0,280)" x2="520" y2="0" stroke="#ddd" stroke-width="1" opacity="1"/><line transform="translate(0,233)" x2="520" y2="0" stroke="#ddd" stroke-width="1" opacity="1"/><line transform="translate(0,187)" x2="520" y2="0" stroke="#ddd" stroke-width="1" opacity="1"/><line transform="translate(0,140)" x2="520" y2="0" stroke="#ddd" stroke-width="1" opacity="1"/><line transform="translate(0,93)" x2="520" y2="0" stroke="#ddd" stroke-width="1" opacity="1"/><line transform="translate(0,47)" x2="520" y2="0" stroke="#ddd" stroke-width="1" opacity="1"/><line transform="translate(0,0)" x2="520" y2="0" stroke="#ddd" stroke-width="1" opacity="1"/></g></g><path class="foreground" aria-hidden="true" d="" pointer-events="none" display="none"/></g></g><g class="mark-group role-axis" role="graphics-symbol" aria-roledescription="axis" aria-label="X-axis titled 'PC1' for a linear scale with values from −10 to 16"><g transform="translate(0.5,420.5)"><path class="background" aria-hidden="true" d="M0,0h0v0h0Z" pointer-events="none"/><g><g class="mark-rule role-axis-tick" pointer-events="none"><line transform="translate(0,0)" x2="0" y2="5" stroke="#888" stroke-width="1" opacity="1"/><line transform="translate(40,0)" x2="0" y2="5" stroke="#888" stroke-width="1" opacity="1"/><line transform="translate(80,0)" x2="0" y2="5" stroke="#888" stroke-width="1" opacity="1"/><line transform="translate(120,0)" x2="0" y2="5" stroke="#888" stroke-width="1" opacity="1"/><line transform="translate(160,0)" x2="0" y2="5" stroke="#888" stroke-width="1" opacity="1"/><line transform="translate(200,0)" x2="0" y2="5" stroke="#888" stroke-width="1" opacity="1"/><line transform="translate(240,0)" x2="0" y2="5" stroke="#888" stroke-width="1" opacity="1"/><line transform="translate(280,0)" x2="0" y2="5" stroke="#888" stroke-width="1" opacity="1"/><line transform="translate(320,0)" x2="0" y2="5" stroke="#888" stroke-width="1" opacity="1"/><line transform="translate(360,0)" x2="0" y2="5" stroke="#888" stroke-width="1" opacity="1"/><line transform="translate(400,0)" x2="0" y2="5" stroke="#888" stroke-width="1" opacity="1"/><line transform="translate(440,0)" x2="0" y2="5" stroke="#888" stroke-width="1" opacity="1"/><line transform="translate(480,0)" x2="0" y2="5" stroke="#888" stroke-width="1" opacity="1"/><line transform="translate(520,0)" x2="0" y2="5" stroke="#888" stroke-width="1" opacity="1"/></g><g class="mark-text role-axis-label" pointer-events="none"><text text-anchor="start" transform="translate(0,15)" font-family="sans-serif" font-size="10px" fill="#000" opacity="1">−10</text><text text-anchor="middle" transform="translate(40,15)" font-family="sans-serif" font-size="10px" fill="#000" opacity="1">−8</text><text text-anchor="middle" transform="translate(80,15)" font-family="sans-serif" font-size="10px" fill="#000" opacity="1">−6</text><text text-anchor="middle" transform="translate(120,15)" font-family="sans-serif" font-size="10px" fill="#000" opacity="1">−4</text><text text-anchor="middle" transform="translate(160,15)" font-family="sans-serif" font-size="10px" fill="#000" opacity="1">−2</text><text text-anchor="middle" transform="translate(200,15)" font-family="sans-serif" font-size="10px" fill="#000" opacity="1">0</text><text text-anchor="middle" transform="translate(240,15)" font-family="sans-serif" font-size="10px" fill="#000" opacity="1">2</text><text text-anchor="middle" transform="translate(280,15)" font-family="sans-serif" font-size="10px" fill="#000" opacity="1">4</text><text text-anchor="middle" transform="translate(320,15)" font-family="sans-serif" font-size="10px" fill="#000" opacity="1">6</text><text text-anchor="middle" transform="translate(360,15)" font-family="sans-serif" font-size="10px" fill="#000" opacity="1">8</text><text text-anchor="middle" transform="translate(400,15)" font-family="sans-serif" font-size="10px" fill="#000" opacity="1">10</text><text text-anchor="middle" transform="translate(440,15)" font-family="sans-serif" font-size="10px" fill="#000" opacity="1">12</text><text text-anchor="middle" transform="translate(480,15)" font-family="sans-serif" font-size="10px" fill="#000" opacity="1">14</text><text text-anchor="end" transform="translate(520,15)" font-family="sans-serif" font-size="10px" fill="#000" opacity="1">16</text></g><g class="mark-rule role-axis-domain" pointer-events="none"><line transform="translate(0,0)" x2="520" y2="0" stroke="#888" stroke-width="1" opacity="1"/></g><g class="mark-text role-axis-title" pointer-events="none"><text text-anchor="middle" transform="translate(260,30)" font-family="sans-serif" font-size="11px" font-weight="bold" fill="#000" opacity="1">PC1</text></g></g><path class="foreground" aria-hidden="true" d="" pointer-events="none" display="none"/></g></g><g class="mark-group role-axis" role="graphics-symbol" aria-roledescription="axis" aria-label="Y-axis titled 'PC2' for a linear scale with values from −5 to 4"><g transform="translate(0.5,0.5)"><path class="background" aria-hidden="true" d="M0,0h0v0h0Z" pointer-events="none"/><g><g class="mark-rule role-axis-tick" pointer-events="none"><line transform="translate(0,420)" x2="-5" y2="0" stroke="#888" stroke-width="1" opacity="1"/><line transform="translate(0,373)" x2="-5" y2="0" stroke="#888" stroke-width="1" opacity="1"/><line transform="translate(0,327)" x2="-5" y2="0" stroke="#888" stroke-width="1" opacity="1"/><line transform="translate(0,280)" x2="-5" y2="0" stroke="#888" stroke-width="1" opacity="1"/><line transform="translate(0,233)" x2="-5" y2="0" stroke="#888" stroke-width="1" opacity="1"/><line transform="translate(0,187)" x2="-5" y2="0" stroke="#888" stroke-width="1" opacity="1"/><line transform="translate(0,140)" x2="-5" y2="0" stroke="#888" stroke-width="1" opacity="1"/><line transform="translate(0,93)" x2="-5" y2="0" stroke="#888" stroke-width="1" opacity="1"/><line transform="translate(0,47)" x2="-5" y2="0" stroke="#888" stroke-width="1" opacity="1"/><line transform="translate(0,0)" x2="-5" y2="0" stroke="#888" stroke-width="1" opacity="1"/></g><g class="mark-text role-axis-label" pointer-events="none"><text text-anchor="end" transform="translate(-7,423)" font-family="sans-serif" font-size="10px" fill="#000" opacity="1">−5</text><text text-anchor="end" transform="translate(-7,376.3333333333333)" font-family="sans-serif" font-size="10px" fill="#000" opacity="1">−4</text><text text-anchor="end" transform="translate(-7,329.6666666666667)" font-family="sans-serif" font-size="10px" fill="#000" opacity="1">−3</text><text text-anchor="end" transform="translate(-7,283.00000000000006)" font-family="sans-serif" font-size="10px" fill="#000" opacity="1">−2</text><text text-anchor="end" transform="translate(-7,236.33333333333334)" font-family="sans-serif" font-size="10px" fill="#000" opacity="1">−1</text><text text-anchor="end" transform="translate(-7,189.66666666666666)" font-family="sans-serif" font-size="10px" fill="#000" opacity="1">0</text><text text-anchor="end" transform="translate(-7,143.00000000000003)" font-family="sans-serif" font-size="10px" fill="#000" opacity="1">1</text><text text-anchor="end" transform="translate(-7,96.33333333333333)" font-family="sans-serif" font-size="10px" fill="#000" opacity="1">2</text><text text-anchor="end" transform="translate(-7,49.666666666666686)" font-family="sans-serif" font-size="10px" fill="#000" opacity="1">3</text><text text-anchor="end" transform="translate(-7,3)" font-family="sans-serif" font-size="10px" fill="#000" opacity="1">4</text></g><g class="mark-rule role-axis-domain" pointer-events="none"><line transform="translate(0,420)" x2="0" y2="-420" stroke="#888" stroke-width="1" opacity="1"/></g><g class="mark-text role-axis-title" pointer-events="none"><text text-anchor="middle" transform="translate(-22.4013671875,210) rotate(-90) translate(0,-2)" font-family="sans-serif" font-size="11px" font-weight="bold" fill="#000" opacity="1">PC2</text></g></g><path class="foreground" aria-hidden="true" d="" pointer-events="none" display="none"/></g></g><g class="mark-symbol role-mark view_1c54b23f21761043_0_marks" role="graphics-object" aria-roledescription="symbol mark container"><path aria-label="PC1: 3.89021771891; PC2: 1.77104714764; KMeans cluster: 2; language: C; cluster: 2; is_outlier: false; avg_share_pct: 4.85686196334" role="graphics-symbol" aria-roledescription="circle" transform="translate(277.80435437811536,104.0177997770312)" d="M7.416,0A7.416,7.416,0,1,1,-7.416,0A7.416,7.416,0,1,1,7.416,0" fill="#e45756" stroke="white" stroke-width="1" opacity="0.95"/><path aria-label="PC1: 5.5174414886; PC2: −4.58089211677; KMeans cluster: 2; language: C#; cluster: 2; is_outlier: true; avg_share_pct: 8.46209886679" role="graphics-symbol" aria-roledescription="circle" transform="translate(310.3488297720357,400.44163211589097)" d="M7.416,0A7.416,7.416,0,1,1,-7.416,0A7.416,7.416,0,1,1,7.416,0" fill="#e45756" stroke="white" stroke-width="1" opacity="0.95"/><path aria-label="PC1: 6.98848925193; PC2: 0.672081624215; KMeans cluster: 2; language: C++; cluster: 2; is_outlier: false; avg_share_pct: 7.38219066448" role="graphics-symbol" aria-roledescription="circle" transform="translate(339.7697850385566,155.30285753662255)" d="M7.416,0A7.416,7.416,0,1,1,-7.416,0A7.416,7.416,0,1,1,7.416,0" fill="#e45756" stroke="white" stroke-width="1" opacity="0.95"/><path aria-label="PC1: −8.05741211913; PC2: −0.439812451579; KMeans cluster: 1; language: Dart; cluster: 1; is_outlier: false; avg_share_pct: 0.295761517823" role="graphics-symbol" aria-roledescription="circle" transform="translate(38.85175761734285,207.19124774035228)" d="M7.416,0A7.416,7.416,0,1,1,-7.416,0A7.416,7.416,0,1,1,7.416,0" fill="#f58518" stroke="white" stroke-width="1" opacity="0.95"/><path aria-label="PC1: 2.31827072549; PC2: −2.96664296888; KMeans cluster: 2; language: Go; cluster: 2; is_outlier: true; avg_share_pct: 4.10265035431" role="graphics-symbol" aria-roledescription="circle" transform="translate(246.36541450972786,325.11000521426774)" d="M7.416,0A7.416,7.416,0,1,1,-7.416,0A7.416,7.416,0,1,1,7.416,0" fill="#e45756" stroke="white" stroke-width="1" opacity="0.95"/><path aria-label="PC1: −7.12046992519; PC2: 1.67703329046; KMeans cluster: 1; language: Haskell; cluster: 1; is_outlier: false; avg_share_pct: 0.491052562954" role="graphics-symbol" aria-roledescription="circle" transform="translate(57.59060149618296,108.40511311170785)" d="M7.416,0A7.416,7.416,0,1,1,-7.416,0A7.416,7.416,0,1,1,7.416,0" fill="#f58518" stroke="white" stroke-width="1" opacity="0.95"/><path aria-label="PC1: 10.3929844104; PC2: 1.29932605613; KMeans cluster: 0; language: Java; cluster: 0; is_outlier: false; avg_share_pct: 11.9104179601" role="graphics-symbol" aria-roledescription="circle" transform="translate(407.85968820813014,126.03145071374917)" d="M7.416,0A7.416,7.416,0,1,1,-7.416,0A7.416,7.416,0,1,1,7.416,0" fill="#4c78a8" stroke="white" stroke-width="1" opacity="0.95"/><path aria-label="PC1: 14.7205361081; PC2: −0.763555679775; KMeans cluster: 0; language: JavaScript; cluster: 0; is_outlier: true; avg_share_pct: 21.4586626923" role="graphics-symbol" aria-roledescription="circle" transform="translate(494.41072216115316,222.29926505615222)" d="M7.416,0A7.416,7.416,0,1,1,-7.416,0A7.416,7.416,0,1,1,7.416,0" fill="#4c78a8" stroke="white" stroke-width="1" opacity="0.95"/><path aria-label="PC1: −9.36261243666; PC2: 0.245632260555; KMeans cluster: 1; language: Julia; cluster: 1; is_outlier: false; avg_share_pct: 0.0916778464083" role="graphics-symbol" aria-roledescription="circle" transform="translate(12.74775126686567,175.20382784075284)" d="M7.416,0A7.416,7.416,0,1,1,-7.416,0A7.416,7.416,0,1,1,7.416,0" fill="#f58518" stroke="white" stroke-width="1" opacity="0.95"/><path aria-label="PC1: −5.63756459413; PC2: −1.47732139181; KMeans cluster: 1; language: Kotlin; cluster: 1; is_outlier: false; avg_share_pct: 0.779070786833" role="graphics-symbol" aria-roledescription="circle" transform="translate(87.24870811737561,255.60833161779297)" d="M7.416,0A7.416,7.416,0,1,1,-7.416,0A7.416,7.416,0,1,1,7.416,0" fill="#f58518" stroke="white" stroke-width="1" opacity="0.95"/><path aria-label="PC1: −7.03963211386; PC2: 0.419289662458; KMeans cluster: 1; language: Lua; cluster: 1; is_outlier: false; avg_share_pct: 0.457177668766" role="graphics-symbol" aria-roledescription="circle" transform="translate(59.207357722778205,167.09981575197293)" d="M7.416,0A7.416,7.416,0,1,1,-7.416,0A7.416,7.416,0,1,1,7.416,0" fill="#f58518" stroke="white" stroke-width="1" opacity="0.95"/><path aria-label="PC1: −5.47414055505; PC2: 2.45135607493; KMeans cluster: 1; language: Objective-C; cluster: 1; is_outlier: false; avg_share_pct: 0.870498171412" role="graphics-symbol" aria-roledescription="circle" transform="translate(90.51718889898275,72.27004983644727)" d="M7.416,0A7.416,7.416,0,1,1,-7.416,0A7.416,7.416,0,1,1,7.416,0" fill="#f58518" stroke="white" stroke-width="1" opacity="0.95"/><path aria-label="PC1: 7.05276168749; PC2: 2.40223842538; KMeans cluster: 2; language: PHP; cluster: 2; is_outlier: false; avg_share_pct: 7.85479284217" role="graphics-symbol" aria-roledescription="circle" transform="translate(341.0552337498567,74.56220681542537)" d="M7.416,0A7.416,7.416,0,1,1,-7.416,0A7.416,7.416,0,1,1,7.416,0" fill="#e45756" stroke="white" stroke-width="1" opacity="0.95"/><path aria-label="PC1: −5.13772175918; PC2: 0.951358700216; KMeans cluster: 1; language: Perl; cluster: 1; is_outlier: false; avg_share_pct: 0.8749813347" role="graphics-symbol" aria-roledescription="circle" transform="translate(97.24556481630391,142.2699273232407)" d="M7.416,0A7.416,7.416,0,1,1,-7.416,0A7.416,7.416,0,1,1,7.416,0" fill="#f58518" stroke="white" stroke-width="1" opacity="0.95"/><path aria-label="PC1: 12.5951918823; PC2: 0.55244956645; KMeans cluster: 0; language: Python; cluster: 0; is_outlier: false; avg_share_pct: 15.6577314849" role="graphics-symbol" aria-roledescription="circle" transform="translate(451.9038376465076,160.88568689899574)" d="M7.416,0A7.416,7.416,0,1,1,-7.416,0A7.416,7.416,0,1,1,7.416,0" fill="#4c78a8" stroke="white" stroke-width="1" opacity="0.95"/><path aria-label="PC1: −8.21006544611; PC2: 0.177988323448; KMeans cluster: 1; language: R; cluster: 1; is_outlier: false; avg_share_pct: 0.25970479933" role="graphics-symbol" aria-roledescription="circle" transform="translate(35.798691077709925,178.36054490575944)" d="M7.416,0A7.416,7.416,0,1,1,-7.416,0A7.416,7.416,0,1,1,7.416,0" fill="#f58518" stroke="white" stroke-width="1" opacity="0.95"/><path aria-label="PC1: 5.31715628534; PC2: 3.80241782982; KMeans cluster: 2; language: Ruby; cluster: 2; is_outlier: true; avg_share_pct: 6.96502308407" role="graphics-symbol" aria-roledescription="circle" transform="translate(306.343125706787,9.220501274985631)" d="M7.416,0A7.416,7.416,0,1,1,-7.416,0A7.416,7.416,0,1,1,7.416,0" fill="#e45756" stroke="white" stroke-width="1" opacity="0.95"/><path aria-label="PC1: −5.57101266009; PC2: −1.13035980252; KMeans cluster: 1; language: Rust; cluster: 1; is_outlier: false; avg_share_pct: 0.772469420523" role="graphics-symbol" aria-roledescription="circle" transform="translate(88.57974679815278,239.41679078432213)" d="M7.416,0A7.416,7.416,0,1,1,-7.416,0A7.416,7.416,0,1,1,7.416,0" fill="#f58518" stroke="white" stroke-width="1" opacity="0.95"/><path aria-label="PC1: −3.5752794134; PC2: 0.719830678332; KMeans cluster: 1; language: Scala; cluster: 1; is_outlier: false; avg_share_pct: 1.26991006449" role="graphics-symbol" aria-roledescription="circle" transform="translate(128.49441173206728,153.07456834449522)" d="M7.416,0A7.416,7.416,0,1,1,-7.416,0A7.416,7.416,0,1,1,7.416,0" fill="#f58518" stroke="white" stroke-width="1" opacity="0.95"/><path aria-label="PC1: −5.6801267264; PC2: −0.972138114056; KMeans cluster: 1; language: Swift; cluster: 1; is_outlier: false; avg_share_pct: 0.750946953015" role="graphics-symbol" aria-roledescription="circle" transform="translate(86.39746547197889,232.03311198928282)" d="M7.416,0A7.416,7.416,0,1,1,-7.416,0A7.416,7.416,0,1,1,7.416,0" fill="#f58518" stroke="white" stroke-width="1" opacity="0.95"/><path aria-label="PC1: 2.07298819067; PC2: −4.81132711466; KMeans cluster: 2; language: TypeScript; cluster: 2; is_outlier: true; avg_share_pct: 4.43631896125" role="graphics-symbol" aria-roledescription="circle" transform="translate(241.459763813389,411.1952653507529)" d="M7.416,0A7.416,7.416,0,1,1,-7.416,0A7.416,7.416,0,1,1,7.416,0" fill="#e45756" stroke="white" stroke-width="1" opacity="0.95"/></g><g class="mark-text role-mark layer_1_marks" role="graphics-object" aria-roledescription="text mark container" pointer-events="none"><text aria-label="PC1: 3.89021771891; PC2: 1.77104714764; language: C" role="graphics-symbol" aria-roledescription="text mark" text-anchor="middle" transform="translate(277.80435437811536,93.0177997770312)" font-family="sans-serif" font-size="10px" fill="#222" opacity="0.95">C</text><text aria-label="PC1: 5.5174414886; PC2: −4.58089211677; language: C#" role="graphics-symbol" aria-roledescription="text mark" text-anchor="middle" transform="translate(310.3488297720357,389.44163211589097)" font-family="sans-serif" font-size="10px" fill="#222" opacity="0.95">C#</text><text aria-label="PC1: 6.98848925193; PC2: 0.672081624215; language: C++" role="graphics-symbol" aria-roledescription="text mark" text-anchor="middle" transform="translate(339.7697850385566,144.30285753662255)" font-family="sans-serif" font-size="10px" fill="#222" opacity="0.95">C++</text><text aria-label="PC1: −8.05741211913; PC2: −0.439812451579; language: Dart" role="graphics-symbol" aria-roledescription="text mark" text-anchor="middle" transform="translate(38.85175761734285,196.19124774035228)" font-family="sans-serif" font-size="10px" fill="#222" opacity="0.95">Dart</text><text aria-label="PC1: 2.31827072549; PC2: −2.96664296888; language: Go" role="graphics-symbol" aria-roledescription="text mark" text-anchor="middle" transform="translate(246.36541450972786,314.11000521426774)" font-family="sans-serif" font-size="10px" fill="#222" opacity="0.95">Go</text><text aria-label="PC1: −7.12046992519; PC2: 1.67703329046; language: Haskell" role="graphics-symbol" aria-roledescription="text mark" text-anchor="middle" transform="translate(57.59060149618296,97.40511311170785)" font-family="sans-serif" font-size="10px" fill="#222" opacity="0.95">Haskell</text><text aria-label="PC1: 10.3929844104; PC2: 1.29932605613; language: Java" role="graphics-symbol" aria-roledescription="text mark" text-anchor="middle" transform="translate(407.85968820813014,115.03145071374917)" font-family="sans-serif" font-size="10px" fill="#222" opacity="0.95">Java</text><text aria-label="PC1: 14.7205361081; PC2: −0.763555679775; language: JavaScript" role="graphics-symbol" aria-roledescription="text mark" text-anchor="middle" transform="translate(494.41072216115316,211.29926505615222)" font-family="sans-serif" font-size="10px" fill="#222" opacity="0.95">JavaScript</text><text aria-label="PC1: −9.36261243666; PC2: 0.245632260555; language: Julia" role="graphics-symbol" aria-roledescription="text mark" text-anchor="middle" transform="translate(12.74775126686567,164.20382784075284)" font-family="sans-serif" font-size="10px" fill="#222" opacity="0.95">Julia</text><text aria-label="PC1: −5.63756459413; PC2: −1.47732139181; language: Kotlin" role="graphics-symbol" aria-roledescription="text mark" text-anchor="middle" transform="translate(87.24870811737561,244.60833161779297)" font-family="sans-serif" font-size="10px" fill="#222" opacity="0.95">Kotlin</text><text aria-label="PC1: −7.03963211386; PC2: 0.419289662458; language: Lua" role="graphics-symbol" aria-roledescription="text mark" text-anchor="middle" transform="translate(59.207357722778205,156.09981575197293)" font-family="sans-serif" font-size="10px" fill="#222" opacity="0.95">Lua</text><text aria-label="PC1: −5.47414055505; PC2: 2.45135607493; language: Objective-C" role="graphics-symbol" aria-roledescription="text mark" text-anchor="middle" transform="translate(90.51718889898275,61.27004983644727)" font-family="sans-serif" font-size="10px" fill="#222" opacity="0.95">Objective-C</text><text aria-label="PC1: 7.05276168749; PC2: 2.40223842538; language: PHP" role="graphics-symbol" aria-roledescription="text mark" text-anchor="middle" transform="translate(341.0552337498567,63.56220681542537)" font-family="sans-serif" font-size="10px" fill="#222" opacity="0.95">PHP</text><text aria-label="PC1: −5.13772175918; PC2: 0.951358700216; language: Perl" role="graphics-symbol" aria-roledescription="text mark" text-anchor="middle" transform="translate(97.24556481630391,131.2699273232407)" font-family="sans-serif" font-size="10px" fill="#222" opacity="0.95">Perl</text><text aria-label="PC1: 12.5951918823; PC2: 0.55244956645; language: Python" role="graphics-symbol" aria-roledescription="text mark" text-anchor="middle" transform="translate(451.9038376465076,149.88568689899574)" font-family="sans-serif" font-size="10px" fill="#222" opacity="0.95">Python</text><text aria-label="PC1: −8.21006544611; PC2: 0.177988323448; language: R" role="graphics-symbol" aria-roledescription="text mark" text-anchor="middle" transform="translate(35.798691077709925,167.36054490575944)" font-family="sans-serif" font-size="10px" fill="#222" opacity="0.95">R</text><text aria-label="PC1: 5.31715628534; PC2: 3.80241782982; language: Ruby" role="graphics-symbol" aria-roledescription="text mark" text-anchor="middle" transform="translate(306.343125706787,-1.7794987250143688)" font-family="sans-serif" font-size="10px" fill="#222" opacity="0.95">Ruby</text><text aria-label="PC1: −5.57101266009; PC2: −1.13035980252; language: Rust" role="graphics-symbol" aria-roledescription="text mark" text-anchor="middle" transform="translate(88.57974679815278,228.41679078432213)" font-family="sans-serif" font-size="10px" fill="#222" opacity="0.95">Rust</text><text aria-label="PC1: −3.5752794134; PC2: 0.719830678332; language: Scala" role="graphics-symbol" aria-roledescription="text mark" text-anchor="middle" transform="translate(128.49441173206728,142.07456834449522)" font-family="sans-serif" font-size="10px" fill="#222" opacity="0.95">Scala</text><text aria-label="PC1: −5.6801267264; PC2: −0.972138114056; language: Swift" role="graphics-symbol" aria-roledescription="text mark" text-anchor="middle" transform="translate(86.39746547197889,221.03311198928282)" font-family="sans-serif" font-size="10px" fill="#222" opacity="0.95">Swift</text><text aria-label="PC1: 2.07298819067; PC2: −4.81132711466; language: TypeScript" role="graphics-symbol" aria-roledescription="text mark" text-anchor="middle" transform="translate(241.459763813389,400.1952653507529)" font-family="sans-serif" font-size="10px" fill="#222" opacity="0.95">TypeScript</text></g><g class="mark-group role-legend" role="graphics-symbol" aria-roledescription="legend" aria-label="Symbol legend titled 'KMeans cluster' for fill color with 3 values: 0, 1, 2"><g transform="translate(538,0)"><path class="background" aria-hidden="true" d="M0,0h82v61h-82Z" pointer-events="none"/><g><g class="mark-group role-legend-entry"><g transform="translate(0,16)"><path class="background" aria-hidden="true" d="M0,0h0v0h0Z" pointer-events="none"/><g><g class="mark-group role-scope cluster_legend_entries" role="graphics-object" aria-roledescription="group mark container"><g transform="translate(0,0)"><path class="background" aria-hidden="true" d="M0,0h21.5615234375v12.5h-21.5615234375Z" opacity="1"/><g><g class="mark-symbol role-legend-symbol cluster_legend_symbols"><path transform="translate(6,6)" d="M5,0A5,5,0,1,1,-5,0A5,5,0,1,1,5,0" fill="#4c78a8" stroke="white" stroke-width="1.5" opacity="0.95"/></g><g class="mark-text role-legend-label cluster_legend_labels"><text text-anchor="start" transform="translate(16,9)" font-family="sans-serif" font-size="10px" fill="#000" opacity="1">0</text></g></g><path class="foreground" aria-hidden="true" d="" display="none"/></g><g transform="translate(0,16)"><path class="background" aria-hidden="true" d="M0,0h21.5615234375v12.5h-21.5615234375Z" opacity="1"/><g><g class="mark-symbol role-legend-symbol cluster_legend_symbols"><path transform="translate(6,6)" d="M5,0A5,5,0,1,1,-5,0A5,5,0,1,1,5,0" fill="#f58518" stroke="white" stroke-width="1.5" opacity="0.95"/></g><g class="mark-text role-legend-label cluster_legend_labels"><text text-anchor="start" transform="translate(16,9)" font-family="sans-serif" font-size="10px" fill="#000" opacity="1">1</text></g></g><path class="foreground" aria-hidden="true" d="" display="none"/></g><g transform="translate(0,32)"><path class="background" aria-hidden="true" d="M0,0h21.5615234375v12.5h-21.5615234375Z" opacity="1"/><g><g class="mark-symbol role-legend-symbol cluster_legend_symbols"><path transform="translate(6,6)" d="M5,0A5,5,0,1,1,-5,0A5,5,0,1,1,5,0" fill="#e45756" stroke="white" stroke-width="1.5" opacity="0.95"/></g><g class="mark-text role-legend-label cluster_legend_labels"><text text-anchor="start" transform="translate(16,9)" font-family="sans-serif" font-size="10px" fill="#000" opacity="1">2</text></g></g><path class="foreground" aria-hidden="true" d="" display="none"/></g></g></g><path class="foreground" aria-hidden="true" d="" pointer-events="none" display="none"/></g></g><g class="mark-text role-legend-title" pointer-events="none"><text text-anchor="start" transform="translate(0,9)" font-family="sans-serif" font-size="11px" font-weight="bold" fill="#000" opacity="1">KMeans cluster</text></g></g><path class="foreground" aria-hidden="true" d="" pointer-events="none" display="none"/></g></g><g class="mark-group role-title"><g transform="translate(260,-26.77949872501437)"><path class="background" aria-hidden="true" d="M0,0h0v0h0Z" pointer-events="none"/><g><g class="mark-text role-title-text" role="graphics-symbol" aria-roledescription="title" aria-label="Title text 'EDA: k-means clusters on PCA space (k=3)'" pointer-events="none"><text text-anchor="middle" transform="translate(0,10)" font-family="sans-serif" font-size="13px" font-weight="bold" fill="#000" opacity="1">EDA: k-means clusters on PCA space (k=3)</text></g></g><path class="foreground" aria-hidden="true" d="" pointer-events="none" display="none"/></g></g></g><path class="foreground" aria-hidden="true" d="" display="none"/></g></g></g></svg>